#tb 0: 1001/24000
0,          0,          0,        1,   233472, 0x27488413
0,          1,          1,        1,   233472, 0x4af384b5
0,          2,          2,        1,   233472, 0x948d845d
0,          3,          3,        1,   233472, 0xd6ed845e
0,          4,          4,        1,   233472, 0x230f8444
0,          5,          5,        1,   233472, 0x230f8444
0,          6,          6,        1,   233472, 0x230f8444
0,          7,          7,        1,   233472, 0xa5078424
0,          8,          8,        1,   233472, 0xa5078424
0,          9,          9,        1,   233472, 0xa5078424
0,         10,         10,        1,   233472, 0xa5078424
0,         11,         11,        1,   233472, 0xa5078424
0,         12,         12,        1,   233472, 0xa5078424
0,         13,         13,        1,   233472, 0xa5078424
0,         14,         14,        1,   233472, 0xa5078424
0,         15,         15,        1,   233472, 0xa5078424
0,         16,         16,        1,   233472, 0xa5078424
0,         17,         17,        1,   233472, 0xa5078424
0,         18,         18,        1,   233472, 0xa5078424
0,         19,         19,        1,   233472, 0xa5078424
0,         20,         20,        1,   233472, 0xa5078424
0,         21,         21,        1,   233472, 0xa5078424
0,         22,         22,        1,   233472, 0xa5078424
0,         23,         23,        1,   233472, 0xa5078424
0,         24,         24,        1,   233472, 0xa5078424
0,         25,         25,        1,   233472, 0xa5078424
0,         26,         26,        1,   233472, 0xa5078424
0,         27,         27,        1,   233472, 0xa5078424
0,         28,         28,        1,   233472, 0xa5078424
0,         29,         29,        1,   233472, 0xa5078424
0,         30,         30,        1,   233472, 0xa5078424
0,         31,         31,        1,   233472, 0xa5078424
0,         32,         32,        1,   233472, 0xa5078424
0,         33,         33,        1,   233472, 0xa5078424
0,         34,         34,        1,   233472, 0xa5078424
0,         35,         35,        1,   233472, 0xa5078424
0,         36,         36,        1,   233472, 0xa5078424
0,         37,         37,        1,   233472, 0xa5078424
0,         38,         38,        1,   233472, 0xa5078424
0,         39,         39,        1,   233472, 0xa5078424
0,         40,         40,        1,   233472, 0x05667dea
0,         41,         41,        1,   233472, 0x6ae1823e
0,         42,         42,        1,   233472, 0x3c8a7ea9
0,         43,         43,        1,   233472, 0xcae2832a
0,         44,         44,        1,   233472, 0x547a7ec2
0,         45,         45,        1,   233472, 0xa6628327
0,         46,         46,        1,   233472, 0xecd77edc
0,         47,         47,        1,   233472, 0xe9538356
0,         48,         48,        1,   233472, 0xca297eb1
0,         49,         49,        1,   233472, 0xe5648329
0,         50,         50,        1,   233472, 0xad8c7e94
0,         51,         51,        1,   233472, 0xca0d82fc
0,         52,         52,        1,   233472, 0x62277e8d
0,         53,         53,        1,   233472, 0x7ef782f5
0,         54,         54,        1,   233472, 0x09b27e8d
0,         55,         55,        1,   233472, 0x66f382f5
0,         56,         56,        1,   233472, 0x0aaa7e8d
0,         57,         57,        1,   233472, 0x676b82f5
0,         58,         58,        1,   233472, 0x0a8a7e8d
0,         59,         59,        1,   233472, 0x670b82f5
0,         60,         60,        1,   233472, 0x09fa7e8d
0,         61,         61,        1,   233472, 0x671b82f5
0,         62,         62,        1,   233472, 0x0ac27e8d
0,         63,         63,        1,   233472, 0x674382f5
0,         64,         64,        1,   233472, 0x0a727e8d
0,         65,         65,        1,   233472, 0x673382f5
0,         66,         66,        1,   233472, 0x0a127e8d
0,         67,         67,        1,   233472, 0x66f382f5
0,         68,         68,        1,   233472, 0x0aaa7e8d
0,         69,         69,        1,   233472, 0x676b82f5
0,         70,         70,        1,   233472, 0x0a8a7e8d
0,         71,         71,        1,   233472, 0x670b82f5
0,         72,         72,        1,   233472, 0x09fa7e8d
0,         73,         73,        1,   233472, 0x671b82f5
0,         74,         74,        1,   233472, 0x0ac27e8d
0,         75,         75,        1,   233472, 0x674382f5
0,         76,         76,        1,   233472, 0x0a727e8d
0,         77,         77,        1,   233472, 0x673382f5
0,         78,         78,        1,   233472, 0x0a127e8d
0,         79,         79,        1,   233472, 0xa3917e7f
0,         80,         80,        1,   233472, 0x0554868d
0,         81,         81,        1,   233472, 0x05ba6d7a
0,         82,         82,        1,   233472, 0x05ba6d7a
0,         83,         83,        1,   233472, 0x05ba6d7a
0,         84,         84,        1,   233472, 0x05ba6d7a
0,         85,         85,        1,   233472, 0x05ba6d7a
0,         86,         86,        1,   233472, 0x05ba6d7a
0,         87,         87,        1,   233472, 0x05ba6d7a
0,         88,         88,        1,   233472, 0x05ba6d7a
0,         89,         89,        1,   233472, 0x05ba6d7a
0,         90,         90,        1,   233472, 0x05ba6d7a
0,         91,         91,        1,   233472, 0x05ba6d7a
0,         92,         92,        1,   233472, 0x05ba6d7a
0,         93,         93,        1,   233472, 0x05ba6d7a
0,         94,         94,        1,   233472, 0x05ba6d7a
0,         95,         95,        1,   233472, 0x05ba6d7a
0,         96,         96,        1,   233472, 0x05ba6d7a
0,         97,         97,        1,   233472, 0x05ba6d7a
0,         98,         98,        1,   233472, 0x05ba6d7a
0,         99,         99,        1,   233472, 0x05ba6d7a
0,        100,        100,        1,   233472, 0x05ba6d7a
0,        101,        101,        1,   233472, 0x05ba6d7a
0,        102,        102,        1,   233472, 0x05ba6d7a
0,        103,        103,        1,   233472, 0x05ba6d7a
0,        104,        104,        1,   233472, 0x3a6a6d61
0,        105,        105,        1,   233472, 0x0bab7adc
0,        106,        106,        1,   233472, 0x12b44993
0,        107,        107,        1,   233472, 0xa20ad6d1
0,        108,        108,        1,   233472, 0xfd916a4a
0,        109,        109,        1,   233472, 0xd34f3e95
0,        110,        110,        1,   233472, 0x19571d5c
0,        111,        111,        1,   233472, 0x7c8351ad
0,        112,        112,        1,   233472, 0xea279823
0,        113,        113,        1,   233472, 0xc5011cfd
0,        114,        114,        1,   233472, 0xbd7fb9af
0,        115,        115,        1,   233472, 0xdfb3bb7c
0,        116,        116,        1,   233472, 0x6d631236
0,        117,        117,        1,   233472, 0xdb579a7b
0,        118,        118,        1,   233472, 0x47584a3e
0,        119,        119,        1,   233472, 0x7a27a914
0,        120,        120,        1,   233472, 0x2996270d
0,        121,        121,        1,   233472, 0xefeaa7ed
0,        122,        122,        1,   233472, 0xa3e74ae1
0,        123,        123,        1,   233472, 0x8a51d61c
0,        124,        124,        1,   233472, 0x25085ee7
0,        125,        125,        1,   233472, 0x0a811253
0,        126,        126,        1,   233472, 0x7d3eda84
0,        127,        127,        1,   233472, 0xd0a0887d
0,        128,        128,        1,   233472, 0xc9e6702c
0,        129,        129,        1,   233472, 0x0da14346
0,        130,        130,        1,   233472, 0x040f0605
0,        131,        131,        1,   233472, 0x76ea841a
0,        132,        132,        1,   233472, 0x105b6600
0,        133,        133,        1,   233472, 0x73015e08
0,        134,        134,        1,   233472, 0xe77d6662
0,        135,        135,        1,   233472, 0x7514fcd1
0,        136,        136,        1,   233472, 0xb091a850
0,        137,        137,        1,   233472, 0x74ccdccd
0,        138,        138,        1,   233472, 0xd1c002fc
0,        139,        139,        1,   233472, 0x7bfcfdac
0,        140,        140,        1,   233472, 0xf48a133f
0,        141,        141,        1,   233472, 0x279c16dd
0,        142,        142,        1,   233472, 0x58427907
0,        143,        143,        1,   233472, 0x4668a8f2
0,        144,        144,        1,   233472, 0x93fb555f
0,        145,        145,        1,   233472, 0x49ed3cf2
0,        146,        146,        1,   233472, 0xd620fac9
0,        147,        147,        1,   233472, 0xe4efae83
0,        148,        148,        1,   233472, 0xe4d377be
0,        149,        149,        1,   233472, 0x6fc229c1
0,        150,        150,        1,   233472, 0xab5a8898
0,        151,        151,        1,   233472, 0x58a493dd
0,        152,        152,        1,   233472, 0x5c1c1093
0,        153,        153,        1,   233472, 0x2d831af9
0,        154,        154,        1,   233472, 0x9a0d3cdf
0,        155,        155,        1,   233472, 0x2be78f0b
0,        156,        156,        1,   233472, 0xfc7cc656
0,        157,        157,        1,   233472, 0xaa8624b7
0,        158,        158,        1,   233472, 0xb9c9afc1
0,        159,        159,        1,   233472, 0x709e8009
0,        160,        160,        1,   233472, 0xd2260830
0,        161,        161,        1,   233472, 0xadb3954e
0,        162,        162,        1,   233472, 0x74fc3e65
0,        163,        163,        1,   233472, 0xb4bcdea4
0,        164,        164,        1,   233472, 0x60c46cf5
0,        165,        165,        1,   233472, 0x0e48eff8
0,        166,        166,        1,   233472, 0x60e46733
0,        167,        167,        1,   233472, 0x708ec89f
0,        168,        168,        1,   233472, 0x1f11264e
0,        169,        169,        1,   233472, 0x6cba8300
0,        170,        170,        1,   233472, 0xd1a5d756
0,        171,        171,        1,   233472, 0xb936621e
0,        172,        172,        1,   233472, 0x1667b4af
0,        173,        173,        1,   233472, 0xc212276d
0,        174,        174,        1,   233472, 0x9d7a871d
0,        175,        175,        1,   233472, 0xb52834f9
0,        176,        176,        1,   233472, 0x983bde84
0,        177,        177,        1,   233472, 0xd1c63d88
0,        178,        178,        1,   233472, 0xa38cb687
0,        179,        179,        1,   233472, 0xd81bf8ff
0,        180,        180,        1,   233472, 0x688b231a
0,        181,        181,        1,   233472, 0xd5ad3038
0,        182,        182,        1,   233472, 0xcd227f74
0,        183,        183,        1,   233472, 0x81ec23d6
0,        184,        184,        1,   233472, 0x52c1cd86
0,        185,        185,        1,   233472, 0xa4199853
0,        186,        186,        1,   233472, 0xe82c83e4
0,        187,        187,        1,   233472, 0xe9810f88
0,        188,        188,        1,   233472, 0x37e95ae7
0,        189,        189,        1,   233472, 0xf6974d5d
0,        190,        190,        1,   233472, 0x31788551
0,        191,        191,        1,   233472, 0x00d6c539
0,        192,        192,        1,   233472, 0xdbb52151
0,        193,        193,        1,   233472, 0x594433d3
0,        194,        194,        1,   233472, 0xeec44f91
0,        195,        195,        1,   233472, 0x302894bf
0,        196,        196,        1,   233472, 0x44f5ddc3
0,        197,        197,        1,   233472, 0x6c1edd28
0,        198,        198,        1,   233472, 0x7fd1e412
0,        199,        199,        1,   233472, 0xd771f11b
0,        200,        200,        1,   233472, 0x09c675d5
0,        201,        201,        1,   233472, 0x8fd9112e
0,        202,        202,        1,   233472, 0x602002e5
0,        203,        203,        1,   233472, 0xb9a22029
0,        204,        204,        1,   233472, 0x18e99807
0,        205,        205,        1,   233472, 0x3d8657d8
0,        206,        206,        1,   233472, 0x4cd73a85
0,        207,        207,        1,   233472, 0x84ddb474
0,        208,        208,        1,   233472, 0x69636bb8
0,        209,        209,        1,   233472, 0xa0436d50
0,        210,        210,        1,   233472, 0x93c86d78
0,        211,        211,        1,   233472, 0x05ba6d7a
0,        212,        212,        1,   233472, 0x05ba6d7a
0,        213,        213,        1,   233472, 0x05ba6d7a
0,        214,        214,        1,   233472, 0x126c6406
0,        215,        215,        1,   233472, 0xe3885a3a
0,        216,        216,        1,   233472, 0xf1256fe9
0,        217,        217,        1,   233472, 0x5a84377e
0,        218,        218,        1,   233472, 0x7c392d90
0,        219,        219,        1,   233472, 0x8a74df48
0,        220,        220,        1,   233472, 0xfa394653
0,        221,        221,        1,   233472, 0xcbe0cc1b
0,        222,        222,        1,   233472, 0xbf8639cf
0,        223,        223,        1,   233472, 0x7dd2c935
0,        224,        224,        1,   233472, 0x1093148f
0,        225,        225,        1,   233472, 0x624d7d3e
0,        226,        226,        1,   233472, 0xb340cd65
0,        227,        227,        1,   233472, 0x6c0ae5c6
0,        228,        228,        1,   233472, 0x0c5eaf73
0,        229,        229,        1,   233472, 0x27be64ce
0,        230,        230,        1,   233472, 0xac8990f4
0,        231,        231,        1,   233472, 0x1f935102
0,        232,        232,        1,   233472, 0x6e57d96f
0,        233,        233,        1,   233472, 0xf246ea4d
0,        234,        234,        1,   233472, 0x18058011
0,        235,        235,        1,   233472, 0x5951fe6e
0,        236,        236,        1,   233472, 0x0f10371d
0,        237,        237,        1,   233472, 0xe1481043
0,        238,        238,        1,   233472, 0xdedeefcc
0,        239,        239,        1,   233472, 0xf8865db2
0,        240,        240,        1,   233472, 0xe1b3d4d6
0,        241,        241,        1,   233472, 0x81962c43
0,        242,        242,        1,   233472, 0xe903d0bb
0,        243,        243,        1,   233472, 0x6f530ac6
0,        244,        244,        1,   233472, 0x94f7466c
0,        245,        245,        1,   233472, 0xa8c1d365
0,        246,        246,        1,   233472, 0xedcff050
